<?xml version="1.0" encoding="utf-8"?>
<!-- Generator: Adobe Illustrator 24.1.0, SVG Export Plug-In . SVG Version: 6.00 Build 0)  -->
<svg version="1.1" id="Layer_1" xmlns="http://www.w3.org/2000/svg" xmlns:xlink="http://www.w3.org/1999/xlink" x="0px" y="0px"
	 viewBox="0 0 800 500" style="enable-background:new 0 0 800 500;" xml:space="preserve">
<style type="text/css">
	.st0{fill:#6FC6C6;}
	.st1{fill:#4E5557;}
	.st2{fill:#5F8586;}
	.st3{fill:#5D7172;}
	.st4{fill:#4B9191;}
	.st5{fill:#FFFFFF;}
	.st6{font-family:'Montserrat-Regular';}
	.st7{font-size:26.4px;}
	.st8{font-size:22.88px;}
	.st9{font-size:20.02px;}
	.st10{font-size:24.2px;}
	.st11{font-family:'Montserrat-Medium';}
	.st12{fill:none;stroke:#4B9191;stroke-width:5;stroke-miterlimit:10;}
	.st13{font-size:19.8px;}
	.st14{fill:#F89D59;}
	.st15{fill:none;}
	.st16{font-size:14.3px;}
	.st17{font-size:12.1535px;}
</style>
<path class="st0" d="M764.7,464H342.1c-6.6,0-12-5.4-12-12v-37.4c0-6.6,5.4-12,12-12h422.6c6.6,0,12,5.4,12,12V452
	C776.7,458.6,771.3,464,764.7,464z"/>
<path class="st1" d="M764.7,85H342.1c-6.6,0-12-5.4-12-12V35.6c0-6.6,5.4-12,12-12h422.6c6.6,0,12,5.4,12,12V73
	C776.7,79.6,771.3,85,764.7,85z"/>
<ellipse class="st2" cx="207.1" cy="248.8" rx="72.2" ry="29.7"/>
<ellipse class="st3" cx="207.1" cy="155.4" rx="72.2" ry="29.7"/>
<ellipse class="st4" cx="207.1" cy="342.1" rx="72.2" ry="29.7"/>
<text transform="matrix(1 0 0 1 480.9014 61.855)" class="st5 st6 st7">Fully Foreign</text>
<text transform="matrix(1 0 0 1 142.0273 163.9355)" class="st5 st6 st8">Paraphrase</text>
<text transform="matrix(1 0 0 1 151.5264 255.1455)" class="st5 st6 st9">Attributive</text>
<text transform="matrix(1 0 0 1 147.9863 346.626)" class="st5 st6 st9">Productive</text>
<text transform="matrix(0.9808 0 0 1 439.0576 439.6035)" class="st5 st6 st10">Fully Incorporated</text>
<text transform="matrix(1 0 0 1 23.2207 163.9355)" class="st11 st8">Stage 1</text>
<text transform="matrix(1 0 0 1 23.2207 255.1455)" class="st11 st8">Stage 2</text>
<text transform="matrix(1 0 0 1 23.2207 346.626)" class="st11 st8">Stage 3</text>
<g>
	<g>
		<line class="st12" x1="207.1" y1="205.8" x2="207.1" y2="185.1"/>
		<g>
			<path class="st4" d="M207.1,219.1c2.3-6.2,6.3-14,10.5-18.8l-10.5,3.8l-10.5-3.8C200.9,205.1,204.8,212.8,207.1,219.1z"/>
		</g>
	</g>
</g>
<g>
	<g>
		<line class="st12" x1="207.1" y1="299.1" x2="207.1" y2="278.4"/>
		<g>
			<path class="st4" d="M207.1,312.4c2.3-6.2,6.3-14,10.5-18.8l-10.5,3.8l-10.5-3.8C200.9,298.4,204.8,306.1,207.1,312.4z"/>
		</g>
	</g>
</g>
<path class="st3" d="M764.7,181.5H342.1c-6.6,0-12-5.4-12-12v-37.4c0-6.6,5.4-12,12-12h422.6c6.6,0,12,5.4,12,12v37.4
	C776.7,176.1,771.3,181.5,764.7,181.5z"/>
<path class="st2" d="M764.7,280.9H342.1c-6.6,0-12-5.4-12-12v-37.4c0-6.6,5.4-12,12-12h422.6c6.6,0,12,5.4,12,12v37.4
	C776.7,275.5,771.3,280.9,764.7,280.9z"/>
<path class="st4" d="M764.7,371H342.1c-6.6,0-12-5.4-12-12v-37.4c0-6.6,5.4-12,12-12h422.6c6.6,0,12,5.4,12,12V359
	C776.7,365.6,771.3,371,764.7,371z"/>
<g>
	<g>
		<line class="st12" x1="553.4" y1="110.9" x2="553.4" y2="90.3"/>
		<g>
			<path class="st4" d="M553.4,124.2c2.3-6.2,6.3-14,10.5-18.8l-10.5,3.8l-10.5-3.8C547.1,110.2,551.1,118,553.4,124.2z"/>
		</g>
	</g>
</g>
<g>
	<g>
		<line class="st12" x1="553.4" y1="204.3" x2="553.4" y2="183.6"/>
		<g>
			<path class="st4" d="M553.4,217.5c2.3-6.2,6.3-14,10.5-18.8l-10.5,3.8l-10.5-3.8C547.1,203.5,551.1,211.3,553.4,217.5z"/>
		</g>
	</g>
</g>
<g>
	<g>
		<line class="st12" x1="553.4" y1="297.6" x2="553.4" y2="276.9"/>
		<g>
			<path class="st4" d="M553.4,310.8c2.3-6.2,6.3-14,10.5-18.8l-10.5,3.8l-10.5-3.8C547.1,296.8,551.1,304.6,553.4,310.8z"/>
		</g>
	</g>
</g>
<g>
	<g>
		<line class="st12" x1="553.4" y1="387.5" x2="553.4" y2="366.8"/>
		<g>
			<path class="st4" d="M553.4,400.8c2.3-6.2,6.3-14,10.5-18.8l-10.5,3.8l-10.5-3.8C547.1,386.8,551.1,394.5,553.4,400.8z"/>
		</g>
	</g>
</g>
<text transform="matrix(1 0 0 1 340.1577 145.0291)" class="st5 st6 st13">“</text>
<text transform="matrix(1 0 0 1 347.6577 145.0291)" class="st14 st11 st13">Jiu-jitsu (wrestling)</text>
<text transform="matrix(1 0 0 1 537.9578 145.0291)" class="st5 st6 st13"> is also taught, but not </text>
<text transform="matrix(1 0 0 1 340.1577 168.829)" class="st5 st6 st13">much practised by gentlemen.”</text>
<text transform="matrix(1.1766 0 0 1 346.9736 245.6875)" class="st5 st6 st13">“Their gymnasium is often visited by </text>
<text transform="matrix(1.1766 0 0 1 346.9736 269.4873)" class="st14 st11 st13">ju-jitsu wrestlers</text>
<text transform="matrix(1.1766 0 0 1 540.7598 269.4873)" class="st5 st6 st13">.”</text>
<rect x="343.9" y="318.9" class="st15" width="400.5" height="53.1"/>
<text transform="matrix(1 0 0 1 343.9219 333.5811)" class="st5 st6 st13">“‘Revenge?’..‘I shall merely practise </text>
<text transform="matrix(1 0 0 1 343.9219 357.3811)" class="st14 st11 st13">Moral Jiu-jitsu</text>
<text transform="matrix(1 0 0 1 484.0219 357.3811)" class="st5 st6 st13">.’”</text>
<text transform="matrix(1 0 0 1 657.207 171.8643)" class="st5 st6 st16">1875 Japan Mail</text>
<text transform="matrix(1.1766 0 0 1 646.8525 270.7002)" class="st5 st6 st17">1905 Daily Chron.</text>
<rect x="586.7" y="352.5" class="st15" width="177.7" height="15.7"/>
<text transform="matrix(1 0 0 1 586.7402 363.0654)" class="st5 st6 st16">1928 F. ROMER Numbers </text>
</svg>
