<?xml version="1.0" encoding="utf-8"?>
<!-- Generator: Adobe Illustrator 24.1.0, SVG Export Plug-In . SVG Version: 6.00 Build 0)  -->
<svg version="1.1" id="Layer_1" xmlns="http://www.w3.org/2000/svg" xmlns:xlink="http://www.w3.org/1999/xlink" x="0px" y="0px"
	 viewBox="0 0 800 500" style="enable-background:new 0 0 800 500;" xml:space="preserve">
<style type="text/css">
	.st0{fill:#4E5557;}
	.st1{fill:#5F8586;}
	.st2{fill:#5D7172;}
	.st3{fill:#4B9191;}
	.st4{fill:#FAFAF1;}
	.st5{font-family:'Montserrat-Regular';}
	.st6{font-size:26.4px;}
	.st7{font-size:22.88px;}
	.st8{font-size:20.02px;}
	.st9{fill:#FFFFFF;}
	.st10{font-size:24.2px;}
	.st11{font-family:'Montserrat-Medium';}
	.st12{fill:none;stroke:#4B9191;stroke-width:5;stroke-miterlimit:10;}
	.st13{font-size:19.8px;}
	.st14{fill:#F89D59;}
	.st15{fill:none;}
	.st16{font-size:14.3px;}
	.st17{font-size:12.1535px;}
</style>
<path class="st0" d="M764.7,470.8H342.1c-6.6,0-12-5.4-12-12v-37.4c0-6.6,5.4-12,12-12h422.6c6.6,0,12,5.4,12,12v37.4
	C776.7,465.4,771.3,470.8,764.7,470.8z"/>
<path class="st0" d="M764.7,85H342.1c-6.6,0-12-5.4-12-12V35.6c0-6.6,5.4-12,12-12h422.6c6.6,0,12,5.4,12,12V73
	C776.7,79.6,771.3,85,764.7,85z"/>
<ellipse class="st1" cx="207.1" cy="248.8" rx="72.2" ry="29.7"/>
<ellipse class="st2" cx="207.1" cy="155.4" rx="72.2" ry="29.7"/>
<ellipse class="st3" cx="207.1" cy="342.1" rx="72.2" ry="29.7"/>
<text transform="matrix(1 0 0 1 480.9014 61.855)" class="st4 st5 st6">Fully Foreign</text>
<text transform="matrix(1 0 0 1 142.0273 163.9355)" class="st4 st5 st7">Paraphrase</text>
<text transform="matrix(1 0 0 1 151.5264 255.1455)" class="st4 st5 st8">Attributive</text>
<text transform="matrix(1 0 0 1 147.9863 346.626)" class="st4 st5 st8">Productive</text>
<text transform="matrix(0.9808 0 0 1 439.0576 446.415)" class="st9 st5 st10">Fully Incorporated</text>
<text transform="matrix(1 0 0 1 23.2207 163.9355)" class="st11 st7">Stage 1</text>
<text transform="matrix(1 0 0 1 23.2207 255.1455)" class="st11 st7">Stage 2</text>
<text transform="matrix(1 0 0 1 23.2207 346.626)" class="st11 st7">Stage 3</text>
<g>
	<g>
		<line class="st12" x1="207.1" y1="205.8" x2="207.1" y2="185.1"/>
		<g>
			<path class="st3" d="M207.1,219.1c2.3-6.2,6.3-14,10.5-18.8l-10.5,3.8l-10.5-3.8C200.9,205.1,204.8,212.8,207.1,219.1z"/>
		</g>
	</g>
</g>
<g>
	<g>
		<line class="st12" x1="207.1" y1="299.1" x2="207.1" y2="278.4"/>
		<g>
			<path class="st3" d="M207.1,312.4c2.3-6.2,6.3-14,10.5-18.8l-10.5,3.8l-10.5-3.8C200.9,298.4,204.8,306.1,207.1,312.4z"/>
		</g>
	</g>
</g>
<path class="st2" d="M764.7,181.5H342.1c-6.6,0-12-5.4-12-12v-37.4c0-6.6,5.4-12,12-12h422.6c6.6,0,12,5.4,12,12v37.4
	C776.7,176.1,771.3,181.5,764.7,181.5z"/>
<path class="st1" d="M764.7,280.9H342.1c-6.6,0-12-5.4-12-12v-37.4c0-6.6,5.4-12,12-12h422.6c6.6,0,12,5.4,12,12v37.4
	C776.7,275.5,771.3,280.9,764.7,280.9z"/>
<path class="st3" d="M764.7,375.4H342.1c-6.6,0-12-5.4-12-12V326c0-6.6,5.4-12,12-12h422.6c6.6,0,12,5.4,12,12v37.4
	C776.7,370,771.3,375.4,764.7,375.4z"/>
<g>
	<g>
		<line class="st12" x1="553.4" y1="107.3" x2="553.4" y2="85"/>
		<g>
			<path class="st3" d="M553.4,121.7c2.3-6.7,6.3-15.1,10.5-20.3l-10.5,4.1l-10.5-4.1C547.1,106.5,551.1,114.9,553.4,121.7z"/>
		</g>
	</g>
</g>
<g>
	<g>
		<line class="st12" x1="553.4" y1="204.5" x2="553.4" y2="181.5"/>
		<g>
			<path class="st3" d="M553.4,219.1c2.3-6.9,6.3-15.5,10.5-20.9l-10.5,4.2l-10.5-4.2C547.1,203.6,551.1,212.2,553.4,219.1z"/>
		</g>
	</g>
</g>
<g>
	<g>
		<line class="st12" x1="553.4" y1="301.8" x2="553.4" y2="280.9"/>
		<g>
			<path class="st3" d="M553.4,315.2c2.3-6.3,6.3-14.2,10.5-19l-10.5,3.8l-10.5-3.8C547.1,301,551.1,308.9,553.4,315.2z"/>
		</g>
	</g>
</g>
<g>
	<g>
		<line class="st12" x1="553.4" y1="394.5" x2="553.4" y2="371.2"/>
		<g>
			<path class="st3" d="M553.4,409.4c2.3-7,6.3-15.7,10.5-21.1l-10.5,4.3l-10.5-4.3C547.1,393.7,551.1,402.3,553.4,409.4z"/>
		</g>
	</g>
</g>
<text transform="matrix(1 0 0 1 343.9219 144.3159)" class="st9 st5 st13">“</text>
<text transform="matrix(1 0 0 1 351.4219 144.3159)" class="st14 st11 st13">Jiu-jitsu (wrestling)</text>
<text transform="matrix(1 0 0 1 541.7219 144.3159)" class="st9 st5 st13"> is also taught, but not </text>
<text transform="matrix(1 0 0 1 343.9219 168.1159)" class="st9 st5 st13">much practised by gentlemen.”</text>
<text transform="matrix(1.1766 0 0 1 346.9741 245.6875)" class="st9 st5 st13">“Their gymnasium is often visited by </text>
<text transform="matrix(1.1766 0 0 1 346.9741 269.4873)" class="st14 st11 st13">ju-jitsu wrestlers</text>
<text transform="matrix(1.1766 0 0 1 540.7598 269.4873)" class="st9 st5 st13">.”</text>
<rect x="343.9" y="323.3" class="st15" width="400.5" height="53.1"/>
<text transform="matrix(1 0 0 1 343.9219 337.9811)" class="st9 st5 st13">“‘Revenge?’..‘I shall merely practise </text>
<text transform="matrix(1 0 0 1 343.9219 361.7811)" class="st14 st11 st13">Moral Jiu-jitsu</text>
<text transform="matrix(1 0 0 1 484.0219 361.7811)" class="st9 st5 st13">.’”</text>
<text transform="matrix(1 0 0 1 657.207 171.8643)" class="st9 st5 st16">1875 Japan Mail</text>
<text transform="matrix(1.1766 0 0 1 646.8525 270.7002)" class="st9 st5 st17">1905 Daily Chron.</text>
<rect x="586.7" y="356.9" class="st15" width="177.7" height="15.7"/>
<text transform="matrix(1 0 0 1 586.7402 367.4654)" class="st9 st5 st16">1928 F. ROMER Numbers </text>
</svg>
